<?xml version="1.0" encoding="utf-8" standalone="no"?>
<!DOCTYPE svg PUBLIC "-//W3C//DTD SVG 1.1//EN"
  "http://www.w3.org/Graphics/SVG/1.1/DTD/svg11.dtd">
<svg xmlns:xlink="http://www.w3.org/1999/xlink" width="864pt" height="432pt" viewBox="0 0 864 432" xmlns="http://www.w3.org/2000/svg" version="1.1">
 <metadata>
  <rdf:RDF xmlns:dc="http://purl.org/dc/elements/1.1/" xmlns:cc="http://creativecommons.org/ns#" xmlns:rdf="http://www.w3.org/1999/02/22-rdf-syntax-ns#">
   <cc:Work>
    <dc:type rdf:resource="http://purl.org/dc/dcmitype/StillImage"/>
    <dc:date>1980-01-01T00:00:00+00:00</dc:date>
    <dc:format>image/svg+xml</dc:format>
    <dc:creator>
     <cc:Agent>
      <dc:title>Matplotlib v3.10.1, https://matplotlib.org/</dc:title>
     </cc:Agent>
    </dc:creator>
   </cc:Work>
  </rdf:RDF>
 </metadata>
 <defs>
  <style type="text/css">*{stroke-linejoin: round; stroke-linecap: butt}</style>
 </defs>
 <g id="figure_1">
  <g id="patch_1">
   <path d="M 0 432 
L 864 432 
L 864 0 
L 0 0 
z
" style="fill: #ffffff"/>
  </g>
  <g id="axes_1">
   <g id="patch_2">
    <path d="M 108 384.48 
L 777.6 384.48 
L 777.6 51.84 
L 108 51.84 
z
" style="fill: #ffffff"/>
   </g>
   <g id="patch_3">
    <path d="M 106.65407 384.48 
L 109.34593 384.48 
L 109.34593 383.22988 
L 106.65407 383.22988 
z
" clip-path="url(#p299e979c24)"/>
   </g>
   <g id="patch_4">
    <path d="M 110.018894 384.48 
L 112.710754 384.48 
L 112.710754 382.01347 
L 110.018894 382.01347 
z
" clip-path="url(#p299e979c24)"/>
   </g>
   <g id="patch_5">
    <path d="M 113.383719 384.48 
L 116.075578 384.48 
L 116.075578 381.067647 
L 113.383719 381.067647 
z
" clip-path="url(#p299e979c24)"/>
   </g>
   <g id="patch_6">
    <path d="M 116.748543 384.48 
L 119.440402 384.48 
L 119.440402 380.3705 
L 116.748543 380.3705 
z
" clip-path="url(#p299e979c24)"/>
   </g>
   <g id="patch_7">
    <path d="M 120.113367 384.48 
L 122.805226 384.48 
L 122.805226 379.79756 
L 120.113367 379.79756 
z
" clip-path="url(#p299e979c24)"/>
   </g>
   <g id="patch_8">
    <path d="M 123.478191 384.48 
L 126.17005 384.48 
L 126.17005 379.309804 
L 123.478191 379.309804 
z
" clip-path="url(#p299e979c24)"/>
   </g>
   <g id="patch_9">
    <path d="M 126.843015 384.48 
L 129.534874 384.48 
L 129.534874 378.872871 
L 126.843015 378.872871 
z
" clip-path="url(#p299e979c24)"/>
   </g>
   <g id="patch_10">
    <path d="M 130.207839 384.48 
L 132.899698 384.48 
L 132.899698 378.477557 
L 130.207839 378.477557 
z
" clip-path="url(#p299e979c24)"/>
   </g>
   <g id="patch_11">
    <path d="M 133.572663 384.48 
L 136.264523 384.48 
L 136.264523 378.112193 
L 133.572663 378.112193 
z
" clip-path="url(#p299e979c24)"/>
   </g>
   <g id="patch_12">
    <path d="M 136.937487 384.48 
L 139.629347 384.48 
L 139.629347 377.770945 
L 136.937487 377.770945 
z
" clip-path="url(#p299e979c24)"/>
   </g>
   <g id="patch_13">
    <path d="M 140.302312 384.48 
L 142.994171 384.48 
L 142.994171 377.465741 
L 140.302312 377.465741 
z
" clip-path="url(#p299e979c24)"/>
   </g>
   <g id="patch_14">
    <path d="M 143.667136 384.48 
L 146.358995 384.48 
L 146.358995 377.158591 
L 143.667136 377.158591 
z
" clip-path="url(#p299e979c24)"/>
   </g>
   <g id="patch_15">
    <path d="M 147.03196 384.48 
L 149.723819 384.48 
L 149.723819 376.859091 
L 147.03196 376.859091 
z
" clip-path="url(#p299e979c24)"/>
   </g>
   <g id="patch_16">
    <path d="M 150.396784 384.48 
L 153.088643 384.48 
L 153.088643 376.520436 
L 150.396784 376.520436 
z
" clip-path="url(#p299e979c24)"/>
   </g>
   <g id="patch_17">
    <path d="M 153.761608 384.48 
L 156.453467 384.48 
L 156.453467 376.200062 
L 153.761608 376.200062 
z
" clip-path="url(#p299e979c24)"/>
   </g>
   <g id="patch_18">
    <path d="M 157.126432 384.48 
L 159.818291 384.48 
L 159.818291 375.863092 
L 157.126432 375.863092 
z
" clip-path="url(#p299e979c24)"/>
   </g>
   <g id="patch_19">
    <path d="M 160.491256 384.48 
L 163.183116 384.48 
L 163.183116 375.524178 
L 160.491256 375.524178 
z
" clip-path="url(#p299e979c24)"/>
   </g>
   <g id="patch_20">
    <path d="M 163.85608 384.48 
L 166.54794 384.48 
L 166.54794 375.154406 
L 163.85608 375.154406 
z
" clip-path="url(#p299e979c24)"/>
   </g>
   <g id="patch_21">
    <path d="M 167.220905 384.48 
L 169.912764 384.48 
L 169.912764 374.750535 
L 167.220905 374.750535 
z
" clip-path="url(#p299e979c24)"/>
   </g>
   <g id="patch_22">
    <path d="M 170.585729 384.48 
L 173.277588 384.48 
L 173.277588 374.32203 
L 170.585729 374.32203 
z
" clip-path="url(#p299e979c24)"/>
   </g>
   <g id="patch_23">
    <path d="M 173.950553 384.48 
L 176.642412 384.48 
L 176.642412 373.893006 
L 173.950553 373.893006 
z
" clip-path="url(#p299e979c24)"/>
   </g>
   <g id="patch_24">
    <path d="M 177.315377 384.48 
L 180.007236 384.48 
L 180.007236 373.414844 
L 177.315377 373.414844 
z
" clip-path="url(#p299e979c24)"/>
   </g>
   <g id="patch_25">
    <path d="M 180.680201 384.48 
L 183.37206 384.48 
L 183.37206 372.930587 
L 180.680201 372.930587 
z
" clip-path="url(#p299e979c24)"/>
   </g>
   <g id="patch_26">
    <path d="M 184.045025 384.48 
L 186.736884 384.48 
L 186.736884 372.415344 
L 184.045025 372.415344 
z
" clip-path="url(#p299e979c24)"/>
   </g>
   <g id="patch_27">
    <path d="M 187.409849 384.48 
L 190.101709 384.48 
L 190.101709 371.886098 
L 187.409849 371.886098 
z
" clip-path="url(#p299e979c24)"/>
   </g>
   <g id="patch_28">
    <path d="M 190.774673 384.48 
L 193.466533 384.48 
L 193.466533 371.329495 
L 190.774673 371.329495 
z
" clip-path="url(#p299e979c24)"/>
   </g>
   <g id="patch_29">
    <path d="M 194.139497 384.48 
L 196.831357 384.48 
L 196.831357 370.742164 
L 194.139497 370.742164 
z
" clip-path="url(#p299e979c24)"/>
   </g>
   <g id="patch_30">
    <path d="M 197.504322 384.48 
L 200.196181 384.48 
L 200.196181 370.15613 
L 197.504322 370.15613 
z
" clip-path="url(#p299e979c24)"/>
   </g>
   <g id="patch_31">
    <path d="M 200.869146 384.48 
L 203.561005 384.48 
L 203.561005 369.537812 
L 200.869146 369.537812 
z
" clip-path="url(#p299e979c24)"/>
   </g>
   <g id="patch_32">
    <path d="M 204.23397 384.48 
L 206.925829 384.48 
L 206.925829 368.896935 
L 204.23397 368.896935 
z
" clip-path="url(#p299e979c24)"/>
   </g>
   <g id="patch_33">
    <path d="M 207.598794 384.48 
L 210.290653 384.48 
L 210.290653 368.235572 
L 207.598794 368.235572 
z
" clip-path="url(#p299e979c24)"/>
   </g>
   <g id="patch_34">
    <path d="M 210.963618 384.48 
L 213.655477 384.48 
L 213.655477 367.554242 
L 210.963618 367.554242 
z
" clip-path="url(#p299e979c24)"/>
   </g>
   <g id="patch_35">
    <path d="M 214.328442 384.48 
L 217.020302 384.48 
L 217.020302 366.823255 
L 214.328442 366.823255 
z
" clip-path="url(#p299e979c24)"/>
   </g>
   <g id="patch_36">
    <path d="M 217.693266 384.48 
L 220.385126 384.48 
L 220.385126 366.096028 
L 217.693266 366.096028 
z
" clip-path="url(#p299e979c24)"/>
   </g>
   <g id="patch_37">
    <path d="M 221.05809 384.48 
L 223.74995 384.48 
L 223.74995 365.343907 
L 221.05809 365.343907 
z
" clip-path="url(#p299e979c24)"/>
   </g>
   <g id="patch_38">
    <path d="M 224.422915 384.48 
L 227.114774 384.48 
L 227.114774 364.565986 
L 224.422915 364.565986 
z
" clip-path="url(#p299e979c24)"/>
   </g>
   <g id="patch_39">
    <path d="M 227.787739 384.48 
L 230.479598 384.48 
L 230.479598 363.772765 
L 227.787739 363.772765 
z
" clip-path="url(#p299e979c24)"/>
   </g>
   <g id="patch_40">
    <path d="M 231.152563 384.48 
L 233.844422 384.48 
L 233.844422 362.970209 
L 231.152563 362.970209 
z
" clip-path="url(#p299e979c24)"/>
   </g>
   <g id="patch_41">
    <path d="M 234.517387 384.48 
L 237.209246 384.48 
L 237.209246 362.143279 
L 234.517387 362.143279 
z
" clip-path="url(#p299e979c24)"/>
   </g>
   <g id="patch_42">
    <path d="M 237.882211 384.48 
L 240.57407 384.48 
L 240.57407 361.305717 
L 237.882211 361.305717 
z
" clip-path="url(#p299e979c24)"/>
   </g>
   <g id="patch_43">
    <path d="M 241.247035 384.48 
L 243.938894 384.48 
L 243.938894 360.455189 
L 241.247035 360.455189 
z
" clip-path="url(#p299e979c24)"/>
   </g>
   <g id="patch_44">
    <path d="M 244.611859 384.48 
L 247.303719 384.48 
L 247.303719 359.588844 
L 244.611859 359.588844 
z
" clip-path="url(#p299e979c24)"/>
   </g>
   <g id="patch_45">
    <path d="M 247.976683 384.48 
L 250.668543 384.48 
L 250.668543 358.707977 
L 247.976683 358.707977 
z
" clip-path="url(#p299e979c24)"/>
   </g>
   <g id="patch_46">
    <path d="M 251.341508 384.48 
L 254.033367 384.48 
L 254.033367 357.8087 
L 251.341508 357.8087 
z
" clip-path="url(#p299e979c24)"/>
   </g>
   <g id="patch_47">
    <path d="M 254.706332 384.48 
L 257.398191 384.48 
L 257.398191 356.898532 
L 254.706332 356.898532 
z
" clip-path="url(#p299e979c24)"/>
   </g>
   <g id="patch_48">
    <path d="M 258.071156 384.48 
L 260.763015 384.48 
L 260.763015 355.961395 
L 258.071156 355.961395 
z
" clip-path="url(#p299e979c24)"/>
   </g>
   <g id="patch_49">
    <path d="M 261.43598 384.48 
L 264.127839 384.48 
L 264.127839 354.993272 
L 261.43598 354.993272 
z
" clip-path="url(#p299e979c24)"/>
   </g>
   <g id="patch_50">
    <path d="M 264.800804 384.48 
L 267.492663 384.48 
L 267.492663 354.014258 
L 264.800804 354.014258 
z
" clip-path="url(#p299e979c24)"/>
   </g>
   <g id="patch_51">
    <path d="M 268.165628 384.48 
L 270.857487 384.48 
L 270.857487 353.011258 
L 268.165628 353.011258 
z
" clip-path="url(#p299e979c24)"/>
   </g>
   <g id="patch_52">
    <path d="M 271.530452 384.48 
L 274.222312 384.48 
L 274.222312 351.993218 
L 271.530452 351.993218 
z
" clip-path="url(#p299e979c24)"/>
   </g>
   <g id="patch_53">
    <path d="M 274.895276 384.48 
L 277.587136 384.48 
L 277.587136 350.973622 
L 274.895276 350.973622 
z
" clip-path="url(#p299e979c24)"/>
   </g>
   <g id="patch_54">
    <path d="M 278.260101 384.48 
L 280.95196 384.48 
L 280.95196 349.915259 
L 278.260101 349.915259 
z
" clip-path="url(#p299e979c24)"/>
   </g>
   <g id="patch_55">
    <path d="M 281.624925 384.48 
L 284.316784 384.48 
L 284.316784 348.871029 
L 281.624925 348.871029 
z
" clip-path="url(#p299e979c24)"/>
   </g>
   <g id="patch_56">
    <path d="M 284.989749 384.48 
L 287.681608 384.48 
L 287.681608 347.805795 
L 284.989749 347.805795 
z
" clip-path="url(#p299e979c24)"/>
   </g>
   <g id="patch_57">
    <path d="M 288.354573 384.48 
L 291.046432 384.48 
L 291.046432 346.735505 
L 288.354573 346.735505 
z
" clip-path="url(#p299e979c24)"/>
   </g>
   <g id="patch_58">
    <path d="M 291.719397 384.48 
L 294.411256 384.48 
L 294.411256 345.650434 
L 291.719397 345.650434 
z
" clip-path="url(#p299e979c24)"/>
   </g>
   <g id="patch_59">
    <path d="M 295.084221 384.48 
L 297.77608 384.48 
L 297.77608 344.552527 
L 295.084221 344.552527 
z
" clip-path="url(#p299e979c24)"/>
   </g>
   <g id="patch_60">
    <path d="M 298.449045 384.48 
L 301.140905 384.48 
L 301.140905 343.43997 
L 298.449045 343.43997 
z
" clip-path="url(#p299e979c24)"/>
   </g>
   <g id="patch_61">
    <path d="M 301.813869 384.48 
L 304.505729 384.48 
L 304.505729 342.334673 
L 301.813869 342.334673 
z
" clip-path="url(#p299e979c24)"/>
   </g>
   <g id="patch_62">
    <path d="M 305.178693 384.48 
L 307.870553 384.48 
L 307.870553 341.203834 
L 305.178693 341.203834 
z
" clip-path="url(#p299e979c24)"/>
   </g>
   <g id="patch_63">
    <path d="M 308.543518 384.48 
L 311.235377 384.48 
L 311.235377 340.066383 
L 308.543518 340.066383 
z
" clip-path="url(#p299e979c24)"/>
   </g>
   <g id="patch_64">
    <path d="M 311.908342 384.48 
L 314.600201 384.48 
L 314.600201 338.902224 
L 311.908342 338.902224 
z
" clip-path="url(#p299e979c24)"/>
   </g>
   <g id="patch_65">
    <path d="M 315.273166 384.48 
L 317.965025 384.48 
L 317.965025 337.714856 
L 315.273166 337.714856 
z
" clip-path="url(#p299e979c24)"/>
   </g>
   <g id="patch_66">
    <path d="M 318.63799 384.48 
L 321.329849 384.48 
L 321.329849 336.532026 
L 318.63799 336.532026 
z
" clip-path="url(#p299e979c24)"/>
   </g>
   <g id="patch_67">
    <path d="M 322.002814 384.48 
L 324.694673 384.48 
L 324.694673 335.341936 
L 322.002814 335.341936 
z
" clip-path="url(#p299e979c24)"/>
   </g>
   <g id="patch_68">
    <path d="M 325.367638 384.48 
L 328.059497 384.48 
L 328.059497 334.174665 
L 325.367638 334.174665 
z
" clip-path="url(#p299e979c24)"/>
   </g>
   <g id="patch_69">
    <path d="M 328.732462 384.48 
L 331.424322 384.48 
L 331.424322 332.967979 
L 328.732462 332.967979 
z
" clip-path="url(#p299e979c24)"/>
   </g>
   <g id="patch_70">
    <path d="M 332.097286 384.48 
L 334.789146 384.48 
L 334.789146 331.733806 
L 332.097286 331.733806 
z
" clip-path="url(#p299e979c24)"/>
   </g>
   <g id="patch_71">
    <path d="M 335.462111 384.48 
L 338.15397 384.48 
L 338.15397 330.484594 
L 335.462111 330.484594 
z
" clip-path="url(#p299e979c24)"/>
   </g>
   <g id="patch_72">
    <path d="M 338.826935 384.48 
L 341.518794 384.48 
L 341.518794 329.239271 
L 338.826935 329.239271 
z
" clip-path="url(#p299e979c24)"/>
   </g>
   <g id="patch_73">
    <path d="M 342.191759 384.48 
L 344.883618 384.48 
L 344.883618 327.968407 
L 342.191759 327.968407 
z
" clip-path="url(#p299e979c24)"/>
   </g>
   <g id="patch_74">
    <path d="M 345.556583 384.48 
L 348.248442 384.48 
L 348.248442 326.685614 
L 345.556583 326.685614 
z
" clip-path="url(#p299e979c24)"/>
   </g>
   <g id="patch_75">
    <path d="M 348.921407 384.48 
L 351.613266 384.48 
L 351.613266 325.391541 
L 348.921407 325.391541 
z
" clip-path="url(#p299e979c24)"/>
   </g>
   <g id="patch_76">
    <path d="M 352.286231 384.48 
L 354.97809 384.48 
L 354.97809 324.095654 
L 352.286231 324.095654 
z
" clip-path="url(#p299e979c24)"/>
   </g>
   <g id="patch_77">
    <path d="M 355.651055 384.48 
L 358.342915 384.48 
L 358.342915 322.771372 
L 355.651055 322.771372 
z
" clip-path="url(#p299e979c24)"/>
   </g>
   <g id="patch_78">
    <path d="M 359.015879 384.48 
L 361.707739 384.48 
L 361.707739 321.453962 
L 359.015879 321.453962 
z
" clip-path="url(#p299e979c24)"/>
   </g>
   <g id="patch_79">
    <path d="M 362.380704 384.48 
L 365.072563 384.48 
L 365.072563 320.119048 
L 362.380704 320.119048 
z
" clip-path="url(#p299e979c24)"/>
   </g>
   <g id="patch_80">
    <path d="M 365.745528 384.48 
L 368.437387 384.48 
L 368.437387 318.778819 
L 365.745528 318.778819 
z
" clip-path="url(#p299e979c24)"/>
   </g>
   <g id="patch_81">
    <path d="M 369.110352 384.48 
L 371.802211 384.48 
L 371.802211 317.392304 
L 369.110352 317.392304 
z
" clip-path="url(#p299e979c24)"/>
   </g>
   <g id="patch_82">
    <path d="M 372.475176 384.48 
L 375.167035 384.48 
L 375.167035 316.002417 
L 372.475176 316.002417 
z
" clip-path="url(#p299e979c24)"/>
   </g>
   <g id="patch_83">
    <path d="M 375.84 384.48 
L 378.531859 384.48 
L 378.531859 314.619921 
L 375.84 314.619921 
z
" clip-path="url(#p299e979c24)"/>
   </g>
   <g id="patch_84">
    <path d="M 379.204824 384.48 
L 381.896683 384.48 
L 381.896683 313.204492 
L 379.204824 313.204492 
z
" clip-path="url(#p299e979c24)"/>
   </g>
   <g id="patch_85">
    <path d="M 382.569648 384.48 
L 385.261508 384.48 
L 385.261508 311.793732 
L 382.569648 311.793732 
z
" clip-path="url(#p299e979c24)"/>
   </g>
   <g id="patch_86">
    <path d="M 385.934472 384.48 
L 388.626332 384.48 
L 388.626332 310.355744 
L 385.934472 310.355744 
z
" clip-path="url(#p299e979c24)"/>
   </g>
   <g id="patch_87">
    <path d="M 389.299296 384.48 
L 391.991156 384.48 
L 391.991156 308.927869 
L 389.299296 308.927869 
z
" clip-path="url(#p299e979c24)"/>
   </g>
   <g id="patch_88">
    <path d="M 392.664121 384.48 
L 395.35598 384.48 
L 395.35598 307.488195 
L 392.664121 307.488195 
z
" clip-path="url(#p299e979c24)"/>
   </g>
   <g id="patch_89">
    <path d="M 396.028945 384.48 
L 398.720804 384.48 
L 398.720804 306.037112 
L 396.028945 306.037112 
z
" clip-path="url(#p299e979c24)"/>
   </g>
   <g id="patch_90">
    <path d="M 399.393769 384.48 
L 402.085628 384.48 
L 402.085628 304.55595 
L 399.393769 304.55595 
z
" clip-path="url(#p299e979c24)"/>
   </g>
   <g id="patch_91">
    <path d="M 402.758593 384.48 
L 405.450452 384.48 
L 405.450452 303.107071 
L 402.758593 303.107071 
z
" clip-path="url(#p299e979c24)"/>
   </g>
   <g id="patch_92">
    <path d="M 406.123417 384.48 
L 408.815276 384.48 
L 408.815276 301.657932 
L 406.123417 301.657932 
z
" clip-path="url(#p299e979c24)"/>
   </g>
   <g id="patch_93">
    <path d="M 409.488241 384.48 
L 412.180101 384.48 
L 412.180101 300.194014 
L 409.488241 300.194014 
z
" clip-path="url(#p299e979c24)"/>
   </g>
   <g id="patch_94">
    <path d="M 412.853065 384.48 
L 415.544925 384.48 
L 415.544925 298.707924 
L 412.853065 298.707924 
z
" clip-path="url(#p299e979c24)"/>
   </g>
   <g id="patch_95">
    <path d="M 416.217889 384.48 
L 418.909749 384.48 
L 418.909749 297.190199 
L 416.217889 297.190199 
z
" clip-path="url(#p299e979c24)"/>
   </g>
   <g id="patch_96">
    <path d="M 419.582714 384.48 
L 422.274573 384.48 
L 422.274573 295.65912 
L 419.582714 295.65912 
z
" clip-path="url(#p299e979c24)"/>
   </g>
   <g id="patch_97">
    <path d="M 422.947538 384.48 
L 425.639397 384.48 
L 425.639397 294.152804 
L 422.947538 294.152804 
z
" clip-path="url(#p299e979c24)"/>
   </g>
   <g id="patch_98">
    <path d="M 426.312362 384.48 
L 429.004221 384.48 
L 429.004221 292.612131 
L 426.312362 292.612131 
z
" clip-path="url(#p299e979c24)"/>
   </g>
   <g id="patch_99">
    <path d="M 429.677186 384.48 
L 432.369045 384.48 
L 432.369045 291.05149 
L 429.677186 291.05149 
z
" clip-path="url(#p299e979c24)"/>
   </g>
   <g id="patch_100">
    <path d="M 433.04201 384.48 
L 435.733869 384.48 
L 435.733869 289.485275 
L 433.04201 289.485275 
z
" clip-path="url(#p299e979c24)"/>
   </g>
   <g id="patch_101">
    <path d="M 436.406834 384.48 
L 439.098693 384.48 
L 439.098693 287.911151 
L 436.406834 287.911151 
z
" clip-path="url(#p299e979c24)"/>
   </g>
   <g id="patch_102">
    <path d="M 439.771658 384.48 
L 442.463518 384.48 
L 442.463518 286.326395 
L 439.771658 286.326395 
z
" clip-path="url(#p299e979c24)"/>
   </g>
   <g id="patch_103">
    <path d="M 443.136482 384.48 
L 445.828342 384.48 
L 445.828342 284.757586 
L 443.136482 284.757586 
z
" clip-path="url(#p299e979c24)"/>
   </g>
   <g id="patch_104">
    <path d="M 446.501307 384.48 
L 449.193166 384.48 
L 449.193166 283.155068 
L 446.501307 283.155068 
z
" clip-path="url(#p299e979c24)"/>
   </g>
   <g id="patch_105">
    <path d="M 449.866131 384.48 
L 452.55799 384.48 
L 452.55799 281.504967 
L 449.866131 281.504967 
z
" clip-path="url(#p299e979c24)"/>
   </g>
   <g id="patch_106">
    <path d="M 453.230955 384.48 
L 455.922814 384.48 
L 455.922814 279.847086 
L 453.230955 279.847086 
z
" clip-path="url(#p299e979c24)"/>
   </g>
   <g id="patch_107">
    <path d="M 456.595779 384.48 
L 459.287638 384.48 
L 459.287638 278.18752 
L 456.595779 278.18752 
z
" clip-path="url(#p299e979c24)"/>
   </g>
   <g id="patch_108">
    <path d="M 459.960603 384.48 
L 462.652462 384.48 
L 462.652462 276.498782 
L 459.960603 276.498782 
z
" clip-path="url(#p299e979c24)"/>
   </g>
   <g id="patch_109">
    <path d="M 463.325427 384.48 
L 466.017286 384.48 
L 466.017286 274.864887 
L 463.325427 274.864887 
z
" clip-path="url(#p299e979c24)"/>
   </g>
   <g id="patch_110">
    <path d="M 466.690251 384.48 
L 469.382111 384.48 
L 469.382111 273.11975 
L 466.690251 273.11975 
z
" clip-path="url(#p299e979c24)"/>
   </g>
   <g id="patch_111">
    <path d="M 470.055075 384.48 
L 472.746935 384.48 
L 472.746935 271.458499 
L 470.055075 271.458499 
z
" clip-path="url(#p299e979c24)"/>
   </g>
   <g id="patch_112">
    <path d="M 473.419899 384.48 
L 476.111759 384.48 
L 476.111759 269.743311 
L 473.419899 269.743311 
z
" clip-path="url(#p299e979c24)"/>
   </g>
   <g id="patch_113">
    <path d="M 476.784724 384.48 
L 479.476583 384.48 
L 479.476583 268.031236 
L 476.784724 268.031236 
z
" clip-path="url(#p299e979c24)"/>
   </g>
   <g id="patch_114">
    <path d="M 480.149548 384.48 
L 482.841407 384.48 
L 482.841407 266.272873 
L 480.149548 266.272873 
z
" clip-path="url(#p299e979c24)"/>
   </g>
   <g id="patch_115">
    <path d="M 483.514372 384.48 
L 486.206231 384.48 
L 486.206231 264.536942 
L 483.514372 264.536942 
z
" clip-path="url(#p299e979c24)"/>
   </g>
   <g id="patch_116">
    <path d="M 486.879196 384.48 
L 489.571055 384.48 
L 489.571055 262.743054 
L 486.879196 262.743054 
z
" clip-path="url(#p299e979c24)"/>
   </g>
   <g id="patch_117">
    <path d="M 490.24402 384.48 
L 492.935879 384.48 
L 492.935879 260.966152 
L 490.24402 260.966152 
z
" clip-path="url(#p299e979c24)"/>
   </g>
   <g id="patch_118">
    <path d="M 493.608844 384.48 
L 496.300704 384.48 
L 496.300704 259.142055 
L 493.608844 259.142055 
z
" clip-path="url(#p299e979c24)"/>
   </g>
   <g id="patch_119">
    <path d="M 496.973668 384.48 
L 499.665528 384.48 
L 499.665528 257.324182 
L 496.973668 257.324182 
z
" clip-path="url(#p299e979c24)"/>
   </g>
   <g id="patch_120">
    <path d="M 500.338492 384.48 
L 503.030352 384.48 
L 503.030352 255.50605 
L 500.338492 255.50605 
z
" clip-path="url(#p299e979c24)"/>
   </g>
   <g id="patch_121">
    <path d="M 503.703317 384.48 
L 506.395176 384.48 
L 506.395176 253.669766 
L 503.703317 253.669766 
z
" clip-path="url(#p299e979c24)"/>
   </g>
   <g id="patch_122">
    <path d="M 507.068141 384.48 
L 509.76 384.48 
L 509.76 251.810145 
L 507.068141 251.810145 
z
" clip-path="url(#p299e979c24)"/>
   </g>
   <g id="patch_123">
    <path d="M 510.432965 384.48 
L 513.124824 384.48 
L 513.124824 249.960247 
L 510.432965 249.960247 
z
" clip-path="url(#p299e979c24)"/>
   </g>
   <g id="patch_124">
    <path d="M 513.797789 384.48 
L 516.489648 384.48 
L 516.489648 248.090383 
L 513.797789 248.090383 
z
" clip-path="url(#p299e979c24)"/>
   </g>
   <g id="patch_125">
    <path d="M 517.162613 384.48 
L 519.854472 384.48 
L 519.854472 246.202886 
L 517.162613 246.202886 
z
" clip-path="url(#p299e979c24)"/>
   </g>
   <g id="patch_126">
    <path d="M 520.527437 384.48 
L 523.219296 384.48 
L 523.219296 244.341709 
L 520.527437 244.341709 
z
" clip-path="url(#p299e979c24)"/>
   </g>
   <g id="patch_127">
    <path d="M 523.892261 384.48 
L 526.584121 384.48 
L 526.584121 242.467047 
L 523.892261 242.467047 
z
" clip-path="url(#p299e979c24)"/>
   </g>
   <g id="patch_128">
    <path d="M 527.257085 384.48 
L 529.948945 384.48 
L 529.948945 240.559584 
L 527.257085 240.559584 
z
" clip-path="url(#p299e979c24)"/>
   </g>
   <g id="patch_129">
    <path d="M 530.62191 384.48 
L 533.313769 384.48 
L 533.313769 238.586775 
L 530.62191 238.586775 
z
" clip-path="url(#p299e979c24)"/>
   </g>
   <g id="patch_130">
    <path d="M 533.986734 384.48 
L 536.678593 384.48 
L 536.678593 236.656492 
L 533.986734 236.656492 
z
" clip-path="url(#p299e979c24)"/>
   </g>
   <g id="patch_131">
    <path d="M 537.351558 384.48 
L 540.043417 384.48 
L 540.043417 234.715967 
L 537.351558 234.715967 
z
" clip-path="url(#p299e979c24)"/>
   </g>
   <g id="patch_132">
    <path d="M 540.716382 384.48 
L 543.408241 384.48 
L 543.408241 232.710225 
L 540.716382 232.710225 
z
" clip-path="url(#p299e979c24)"/>
   </g>
   <g id="patch_133">
    <path d="M 544.081206 384.48 
L 546.773065 384.48 
L 546.773065 230.755179 
L 544.081206 230.755179 
z
" clip-path="url(#p299e979c24)"/>
   </g>
   <g id="patch_134">
    <path d="M 547.44603 384.48 
L 550.137889 384.48 
L 550.137889 228.812449 
L 547.44603 228.812449 
z
" clip-path="url(#p299e979c24)"/>
   </g>
   <g id="patch_135">
    <path d="M 550.810854 384.48 
L 553.502714 384.48 
L 553.502714 226.887223 
L 550.810854 226.887223 
z
" clip-path="url(#p299e979c24)"/>
   </g>
   <g id="patch_136">
    <path d="M 554.175678 384.48 
L 556.867538 384.48 
L 556.867538 224.901708 
L 554.175678 224.901708 
z
" clip-path="url(#p299e979c24)"/>
   </g>
   <g id="patch_137">
    <path d="M 557.540503 384.48 
L 560.232362 384.48 
L 560.232362 222.929288 
L 557.540503 222.929288 
z
" clip-path="url(#p299e979c24)"/>
   </g>
   <g id="patch_138">
    <path d="M 560.905327 384.48 
L 563.597186 384.48 
L 563.597186 220.876353 
L 560.905327 220.876353 
z
" clip-path="url(#p299e979c24)"/>
   </g>
   <g id="patch_139">
    <path d="M 564.270151 384.48 
L 566.96201 384.48 
L 566.96201 218.857387 
L 564.270151 218.857387 
z
" clip-path="url(#p299e979c24)"/>
   </g>
   <g id="patch_140">
    <path d="M 567.634975 384.48 
L 570.326834 384.48 
L 570.326834 216.837644 
L 567.634975 216.837644 
z
" clip-path="url(#p299e979c24)"/>
   </g>
   <g id="patch_141">
    <path d="M 570.999799 384.48 
L 573.691658 384.48 
L 573.691658 214.785616 
L 570.999799 214.785616 
z
" clip-path="url(#p299e979c24)"/>
   </g>
   <g id="patch_142">
    <path d="M 574.364623 384.48 
L 577.056482 384.48 
L 577.056482 212.746813 
L 574.364623 212.746813 
z
" clip-path="url(#p299e979c24)"/>
   </g>
   <g id="patch_143">
    <path d="M 577.729447 384.48 
L 580.421307 384.48 
L 580.421307 210.658872 
L 577.729447 210.658872 
z
" clip-path="url(#p299e979c24)"/>
   </g>
   <g id="patch_144">
    <path d="M 581.094271 384.48 
L 583.786131 384.48 
L 583.786131 208.579099 
L 581.094271 208.579099 
z
" clip-path="url(#p299e979c24)"/>
   </g>
   <g id="patch_145">
    <path d="M 584.459095 384.48 
L 587.150955 384.48 
L 587.150955 206.502178 
L 584.459095 206.502178 
z
" clip-path="url(#p299e979c24)"/>
   </g>
   <g id="patch_146">
    <path d="M 587.82392 384.48 
L 590.515779 384.48 
L 590.515779 204.373525 
L 587.82392 204.373525 
z
" clip-path="url(#p299e979c24)"/>
   </g>
   <g id="patch_147">
    <path d="M 591.188744 384.48 
L 593.880603 384.48 
L 593.880603 202.251355 
L 591.188744 202.251355 
z
" clip-path="url(#p299e979c24)"/>
   </g>
   <g id="patch_148">
    <path d="M 594.553568 384.48 
L 597.245427 384.48 
L 597.245427 200.144614 
L 594.553568 200.144614 
z
" clip-path="url(#p299e979c24)"/>
   </g>
   <g id="patch_149">
    <path d="M 597.918392 384.48 
L 600.610251 384.48 
L 600.610251 198.018165 
L 597.918392 198.018165 
z
" clip-path="url(#p299e979c24)"/>
   </g>
   <g id="patch_150">
    <path d="M 601.283216 384.48 
L 603.975075 384.48 
L 603.975075 195.889642 
L 601.283216 195.889642 
z
" clip-path="url(#p299e979c24)"/>
   </g>
   <g id="patch_151">
    <path d="M 604.64804 384.48 
L 607.339899 384.48 
L 607.339899 193.791199 
L 604.64804 193.791199 
z
" clip-path="url(#p299e979c24)"/>
   </g>
   <g id="patch_152">
    <path d="M 608.012864 384.48 
L 610.704724 384.48 
L 610.704724 191.618982 
L 608.012864 191.618982 
z
" clip-path="url(#p299e979c24)"/>
   </g>
   <g id="patch_153">
    <path d="M 611.377688 384.48 
L 614.069548 384.48 
L 614.069548 189.44897 
L 611.377688 189.44897 
z
" clip-path="url(#p299e979c24)"/>
   </g>
   <g id="patch_154">
    <path d="M 614.742513 384.48 
L 617.434372 384.48 
L 617.434372 187.247711 
L 614.742513 187.247711 
z
" clip-path="url(#p299e979c24)"/>
   </g>
   <g id="patch_155">
    <path d="M 618.107337 384.48 
L 620.799196 384.48 
L 620.799196 185.077051 
L 618.107337 185.077051 
z
" clip-path="url(#p299e979c24)"/>
   </g>
   <g id="patch_156">
    <path d="M 621.472161 384.48 
L 624.16402 384.48 
L 624.16402 182.85414 
L 621.472161 182.85414 
z
" clip-path="url(#p299e979c24)"/>
   </g>
   <g id="patch_157">
    <path d="M 624.836985 384.48 
L 627.528844 384.48 
L 627.528844 180.601798 
L 624.836985 180.601798 
z
" clip-path="url(#p299e979c24)"/>
   </g>
   <g id="patch_158">
    <path d="M 628.201809 384.48 
L 630.893668 384.48 
L 630.893668 178.340639 
L 628.201809 178.340639 
z
" clip-path="url(#p299e979c24)"/>
   </g>
   <g id="patch_159">
    <path d="M 631.566633 384.48 
L 634.258492 384.48 
L 634.258492 176.052512 
L 631.566633 176.052512 
z
" clip-path="url(#p299e979c24)"/>
   </g>
   <g id="patch_160">
    <path d="M 634.931457 384.48 
L 637.623317 384.48 
L 637.623317 173.820267 
L 634.931457 173.820267 
z
" clip-path="url(#p299e979c24)"/>
   </g>
   <g id="patch_161">
    <path d="M 638.296281 384.48 
L 640.988141 384.48 
L 640.988141 171.561312 
L 638.296281 171.561312 
z
" clip-path="url(#p299e979c24)"/>
   </g>
   <g id="patch_162">
    <path d="M 641.661106 384.48 
L 644.352965 384.48 
L 644.352965 169.332048 
L 641.661106 169.332048 
z
" clip-path="url(#p299e979c24)"/>
   </g>
   <g id="patch_163">
    <path d="M 645.02593 384.48 
L 647.717789 384.48 
L 647.717789 167.050404 
L 645.02593 167.050404 
z
" clip-path="url(#p299e979c24)"/>
   </g>
   <g id="patch_164">
    <path d="M 648.390754 384.48 
L 651.082613 384.48 
L 651.082613 164.714954 
L 648.390754 164.714954 
z
" clip-path="url(#p299e979c24)"/>
   </g>
   <g id="patch_165">
    <path d="M 651.755578 384.48 
L 654.447437 384.48 
L 654.447437 162.40323 
L 651.755578 162.40323 
z
" clip-path="url(#p299e979c24)"/>
   </g>
   <g id="patch_166">
    <path d="M 655.120402 384.48 
L 657.812261 384.48 
L 657.812261 160.063113 
L 655.120402 160.063113 
z
" clip-path="url(#p299e979c24)"/>
   </g>
   <g id="patch_167">
    <path d="M 658.485226 384.48 
L 661.177085 384.48 
L 661.177085 157.696027 
L 658.485226 157.696027 
z
" clip-path="url(#p299e979c24)"/>
   </g>
   <g id="patch_168">
    <path d="M 661.85005 384.48 
L 664.54191 384.48 
L 664.54191 155.332831 
L 661.85005 155.332831 
z
" clip-path="url(#p299e979c24)"/>
   </g>
   <g id="patch_169">
    <path d="M 665.214874 384.48 
L 667.906734 384.48 
L 667.906734 152.951224 
L 665.214874 152.951224 
z
" clip-path="url(#p299e979c24)"/>
   </g>
   <g id="patch_170">
    <path d="M 668.579698 384.48 
L 671.271558 384.48 
L 671.271558 150.507124 
L 668.579698 150.507124 
z
" clip-path="url(#p299e979c24)"/>
   </g>
   <g id="patch_171">
    <path d="M 671.944523 384.48 
L 674.636382 384.48 
L 674.636382 148.018683 
L 671.944523 148.018683 
z
" clip-path="url(#p299e979c24)"/>
   </g>
   <g id="patch_172">
    <path d="M 675.309347 384.48 
L 678.001206 384.48 
L 678.001206 145.580547 
L 675.309347 145.580547 
z
" clip-path="url(#p299e979c24)"/>
   </g>
   <g id="patch_173">
    <path d="M 678.674171 384.48 
L 681.36603 384.48 
L 681.36603 143.088216 
L 678.674171 143.088216 
z
" clip-path="url(#p299e979c24)"/>
   </g>
   <g id="patch_174">
    <path d="M 682.038995 384.48 
L 684.730854 384.48 
L 684.730854 140.620389 
L 682.038995 140.620389 
z
" clip-path="url(#p299e979c24)"/>
   </g>
   <g id="patch_175">
    <path d="M 685.403819 384.48 
L 688.095678 384.48 
L 688.095678 138.144265 
L 685.403819 138.144265 
z
" clip-path="url(#p299e979c24)"/>
   </g>
   <g id="patch_176">
    <path d="M 688.768643 384.48 
L 691.460503 384.48 
L 691.460503 135.634301 
L 688.768643 135.634301 
z
" clip-path="url(#p299e979c24)"/>
   </g>
   <g id="patch_177">
    <path d="M 692.133467 384.48 
L 694.825327 384.48 
L 694.825327 133.119799 
L 692.133467 133.119799 
z
" clip-path="url(#p299e979c24)"/>
   </g>
   <g id="patch_178">
    <path d="M 695.498291 384.48 
L 698.190151 384.48 
L 698.190151 130.637192 
L 695.498291 130.637192 
z
" clip-path="url(#p299e979c24)"/>
   </g>
   <g id="patch_179">
    <path d="M 698.863116 384.48 
L 701.554975 384.48 
L 701.554975 128.161457 
L 698.863116 128.161457 
z
" clip-path="url(#p299e979c24)"/>
   </g>
   <g id="patch_180">
    <path d="M 702.22794 384.48 
L 704.919799 384.48 
L 704.919799 125.677942 
L 702.22794 125.677942 
z
" clip-path="url(#p299e979c24)"/>
   </g>
   <g id="patch_181">
    <path d="M 705.592764 384.48 
L 708.284623 384.48 
L 708.284623 123.171998 
L 705.592764 123.171998 
z
" clip-path="url(#p299e979c24)"/>
   </g>
   <g id="patch_182">
    <path d="M 708.957588 384.48 
L 711.649447 384.48 
L 711.649447 120.662552 
L 708.957588 120.662552 
z
" clip-path="url(#p299e979c24)"/>
   </g>
   <g id="patch_183">
    <path d="M 712.322412 384.48 
L 715.014271 384.48 
L 715.014271 118.130936 
L 712.322412 118.130936 
z
" clip-path="url(#p299e979c24)"/>
   </g>
   <g id="patch_184">
    <path d="M 715.687236 384.48 
L 718.379095 384.48 
L 718.379095 115.574686 
L 715.687236 115.574686 
z
" clip-path="url(#p299e979c24)"/>
   </g>
   <g id="patch_185">
    <path d="M 719.05206 384.48 
L 721.74392 384.48 
L 721.74392 113.004044 
L 719.05206 113.004044 
z
" clip-path="url(#p299e979c24)"/>
   </g>
   <g id="patch_186">
    <path d="M 722.416884 384.48 
L 725.108744 384.48 
L 725.108744 110.41188 
L 722.416884 110.41188 
z
" clip-path="url(#p299e979c24)"/>
   </g>
   <g id="patch_187">
    <path d="M 725.781709 384.48 
L 728.473568 384.48 
L 728.473568 107.862631 
L 725.781709 107.862631 
z
" clip-path="url(#p299e979c24)"/>
   </g>
   <g id="patch_188">
    <path d="M 729.146533 384.48 
L 731.838392 384.48 
L 731.838392 105.327903 
L 729.146533 105.327903 
z
" clip-path="url(#p299e979c24)"/>
   </g>
   <g id="patch_189">
    <path d="M 732.511357 384.48 
L 735.203216 384.48 
L 735.203216 102.681155 
L 732.511357 102.681155 
z
" clip-path="url(#p299e979c24)"/>
   </g>
   <g id="patch_190">
    <path d="M 735.876181 384.48 
L 738.56804 384.48 
L 738.56804 100.026497 
L 735.876181 100.026497 
z
" clip-path="url(#p299e979c24)"/>
   </g>
   <g id="patch_191">
    <path d="M 739.241005 384.48 
L 741.932864 384.48 
L 741.932864 97.388176 
L 739.241005 97.388176 
z
" clip-path="url(#p299e979c24)"/>
   </g>
   <g id="patch_192">
    <path d="M 742.605829 384.48 
L 745.297688 384.48 
L 745.297688 94.800161 
L 742.605829 94.800161 
z
" clip-path="url(#p299e979c24)"/>
   </g>
   <g id="patch_193">
    <path d="M 745.970653 384.48 
L 748.662513 384.48 
L 748.662513 92.153801 
L 745.970653 92.153801 
z
" clip-path="url(#p299e979c24)"/>
   </g>
   <g id="patch_194">
    <path d="M 749.335477 384.48 
L 752.027337 384.48 
L 752.027337 89.502774 
L 749.335477 89.502774 
z
" clip-path="url(#p299e979c24)"/>
   </g>
   <g id="patch_195">
    <path d="M 752.700302 384.48 
L 755.392161 384.48 
L 755.392161 86.844227 
L 752.700302 86.844227 
z
" clip-path="url(#p299e979c24)"/>
   </g>
   <g id="patch_196">
    <path d="M 756.065126 384.48 
L 758.756985 384.48 
L 758.756985 84.12591 
L 756.065126 84.12591 
z
" clip-path="url(#p299e979c24)"/>
   </g>
   <g id="patch_197">
    <path d="M 759.42995 384.48 
L 762.121809 384.48 
L 762.121809 81.405 
L 759.42995 81.405 
z
" clip-path="url(#p299e979c24)"/>
   </g>
   <g id="patch_198">
    <path d="M 762.794774 384.48 
L 765.486633 384.48 
L 765.486633 78.709891 
L 762.794774 78.709891 
z
" clip-path="url(#p299e979c24)"/>
   </g>
   <g id="patch_199">
    <path d="M 766.159598 384.48 
L 768.851457 384.48 
L 768.851457 75.997926 
L 766.159598 75.997926 
z
" clip-path="url(#p299e979c24)"/>
   </g>
   <g id="patch_200">
    <path d="M 769.524422 384.48 
L 772.216281 384.48 
L 772.216281 73.249918 
L 769.524422 73.249918 
z
" clip-path="url(#p299e979c24)"/>
   </g>
   <g id="patch_201">
    <path d="M 772.889246 384.48 
L 775.581106 384.48 
L 775.581106 70.474035 
L 772.889246 70.474035 
z
" clip-path="url(#p299e979c24)"/>
   </g>
   <g id="patch_202">
    <path d="M 776.25407 384.48 
L 778.94593 384.48 
L 778.94593 67.68 
L 776.25407 67.68 
z
" clip-path="url(#p299e979c24)"/>
   </g>
   <g id="matplotlib.axis_1">
    <g id="xtick_1">
     <g id="line2d_1">
      <defs>
       <path id="mb3fa5344ef" d="M 0 0 
L 0 3.5 
" style="stroke: #000000; stroke-width: 0.8"/>
      </defs>
      <g>
       <use xlink:href="#mb3fa5344ef" x="188.755779" y="384.48" style="stroke: #000000; stroke-width: 0.8"/>
      </g>
     </g>
     <g id="text_1">
      <!-- 250 -->
      <g transform="translate(179.212029 399.078438) scale(0.1 -0.1)">
       <defs>
        <path id="DejaVuSans-32" d="M 1228 531 
L 3431 531 
L 3431 0 
L 469 0 
L 469 531 
Q 828 903 1448 1529 
Q 2069 2156 2228 2338 
Q 2531 2678 2651 2914 
Q 2772 3150 2772 3378 
Q 2772 3750 2511 3984 
Q 2250 4219 1831 4219 
Q 1534 4219 1204 4116 
Q 875 4013 500 3803 
L 500 4441 
Q 881 4594 1212 4672 
Q 1544 4750 1819 4750 
Q 2544 4750 2975 4387 
Q 3406 4025 3406 3419 
Q 3406 3131 3298 2873 
Q 3191 2616 2906 2266 
Q 2828 2175 2409 1742 
Q 1991 1309 1228 531 
z
" transform="scale(0.015625)"/>
        <path id="DejaVuSans-35" d="M 691 4666 
L 3169 4666 
L 3169 4134 
L 1269 4134 
L 1269 2991 
Q 1406 3038 1543 3061 
Q 1681 3084 1819 3084 
Q 2600 3084 3056 2656 
Q 3513 2228 3513 1497 
Q 3513 744 3044 326 
Q 2575 -91 1722 -91 
Q 1428 -91 1123 -41 
Q 819 9 494 109 
L 494 744 
Q 775 591 1075 516 
Q 1375 441 1709 441 
Q 2250 441 2565 725 
Q 2881 1009 2881 1497 
Q 2881 1984 2565 2268 
Q 2250 2553 1709 2553 
Q 1456 2553 1204 2497 
Q 953 2441 691 2322 
L 691 4666 
z
" transform="scale(0.015625)"/>
        <path id="DejaVuSans-30" d="M 2034 4250 
Q 1547 4250 1301 3770 
Q 1056 3291 1056 2328 
Q 1056 1369 1301 889 
Q 1547 409 2034 409 
Q 2525 409 2770 889 
Q 3016 1369 3016 2328 
Q 3016 3291 2770 3770 
Q 2525 4250 2034 4250 
z
M 2034 4750 
Q 2819 4750 3233 4129 
Q 3647 3509 3647 2328 
Q 3647 1150 3233 529 
Q 2819 -91 2034 -91 
Q 1250 -91 836 529 
Q 422 1150 422 2328 
Q 422 3509 836 4129 
Q 1250 4750 2034 4750 
z
" transform="scale(0.015625)"/>
       </defs>
       <use xlink:href="#DejaVuSans-32"/>
       <use xlink:href="#DejaVuSans-35" transform="translate(63.623047 0)"/>
       <use xlink:href="#DejaVuSans-30" transform="translate(127.246094 0)"/>
      </g>
     </g>
    </g>
    <g id="xtick_2">
     <g id="line2d_2">
      <g>
       <use xlink:href="#mb3fa5344ef" x="272.876382" y="384.48" style="stroke: #000000; stroke-width: 0.8"/>
      </g>
     </g>
     <g id="text_2">
      <!-- 500 -->
      <g transform="translate(263.332632 399.078438) scale(0.1 -0.1)">
       <use xlink:href="#DejaVuSans-35"/>
       <use xlink:href="#DejaVuSans-30" transform="translate(63.623047 0)"/>
       <use xlink:href="#DejaVuSans-30" transform="translate(127.246094 0)"/>
      </g>
     </g>
    </g>
    <g id="xtick_3">
     <g id="line2d_3">
      <g>
       <use xlink:href="#mb3fa5344ef" x="356.996985" y="384.48" style="stroke: #000000; stroke-width: 0.8"/>
      </g>
     </g>
     <g id="text_3">
      <!-- 750 -->
      <g transform="translate(347.453235 399.078438) scale(0.1 -0.1)">
       <defs>
        <path id="DejaVuSans-37" d="M 525 4666 
L 3525 4666 
L 3525 4397 
L 1831 0 
L 1172 0 
L 2766 4134 
L 525 4134 
L 525 4666 
z
" transform="scale(0.015625)"/>
       </defs>
       <use xlink:href="#DejaVuSans-37"/>
       <use xlink:href="#DejaVuSans-35" transform="translate(63.623047 0)"/>
       <use xlink:href="#DejaVuSans-30" transform="translate(127.246094 0)"/>
      </g>
     </g>
    </g>
    <g id="xtick_4">
     <g id="line2d_4">
      <g>
       <use xlink:href="#mb3fa5344ef" x="441.117588" y="384.48" style="stroke: #000000; stroke-width: 0.8"/>
      </g>
     </g>
     <g id="text_4">
      <!-- 1000 -->
      <g transform="translate(428.392588 399.078438) scale(0.1 -0.1)">
       <defs>
        <path id="DejaVuSans-31" d="M 794 531 
L 1825 531 
L 1825 4091 
L 703 3866 
L 703 4441 
L 1819 4666 
L 2450 4666 
L 2450 531 
L 3481 531 
L 3481 0 
L 794 0 
L 794 531 
z
" transform="scale(0.015625)"/>
       </defs>
       <use xlink:href="#DejaVuSans-31"/>
       <use xlink:href="#DejaVuSans-30" transform="translate(63.623047 0)"/>
       <use xlink:href="#DejaVuSans-30" transform="translate(127.246094 0)"/>
       <use xlink:href="#DejaVuSans-30" transform="translate(190.869141 0)"/>
      </g>
     </g>
    </g>
    <g id="xtick_5">
     <g id="line2d_5">
      <g>
       <use xlink:href="#mb3fa5344ef" x="525.238191" y="384.48" style="stroke: #000000; stroke-width: 0.8"/>
      </g>
     </g>
     <g id="text_5">
      <!-- 1250 -->
      <g transform="translate(512.513191 399.078438) scale(0.1 -0.1)">
       <use xlink:href="#DejaVuSans-31"/>
       <use xlink:href="#DejaVuSans-32" transform="translate(63.623047 0)"/>
       <use xlink:href="#DejaVuSans-35" transform="translate(127.246094 0)"/>
       <use xlink:href="#DejaVuSans-30" transform="translate(190.869141 0)"/>
      </g>
     </g>
    </g>
    <g id="xtick_6">
     <g id="line2d_6">
      <g>
       <use xlink:href="#mb3fa5344ef" x="609.358794" y="384.48" style="stroke: #000000; stroke-width: 0.8"/>
      </g>
     </g>
     <g id="text_6">
      <!-- 1500 -->
      <g transform="translate(596.633794 399.078438) scale(0.1 -0.1)">
       <use xlink:href="#DejaVuSans-31"/>
       <use xlink:href="#DejaVuSans-35" transform="translate(63.623047 0)"/>
       <use xlink:href="#DejaVuSans-30" transform="translate(127.246094 0)"/>
       <use xlink:href="#DejaVuSans-30" transform="translate(190.869141 0)"/>
      </g>
     </g>
    </g>
    <g id="xtick_7">
     <g id="line2d_7">
      <g>
       <use xlink:href="#mb3fa5344ef" x="693.479397" y="384.48" style="stroke: #000000; stroke-width: 0.8"/>
      </g>
     </g>
     <g id="text_7">
      <!-- 1750 -->
      <g transform="translate(680.754397 399.078438) scale(0.1 -0.1)">
       <use xlink:href="#DejaVuSans-31"/>
       <use xlink:href="#DejaVuSans-37" transform="translate(63.623047 0)"/>
       <use xlink:href="#DejaVuSans-35" transform="translate(127.246094 0)"/>
       <use xlink:href="#DejaVuSans-30" transform="translate(190.869141 0)"/>
      </g>
     </g>
    </g>
    <g id="xtick_8">
     <g id="line2d_8">
      <g>
       <use xlink:href="#mb3fa5344ef" x="777.6" y="384.48" style="stroke: #000000; stroke-width: 0.8"/>
      </g>
     </g>
     <g id="text_8">
      <!-- 2000 -->
      <g transform="translate(764.875 399.078438) scale(0.1 -0.1)">
       <use xlink:href="#DejaVuSans-32"/>
       <use xlink:href="#DejaVuSans-30" transform="translate(63.623047 0)"/>
       <use xlink:href="#DejaVuSans-30" transform="translate(127.246094 0)"/>
       <use xlink:href="#DejaVuSans-30" transform="translate(190.869141 0)"/>
      </g>
     </g>
    </g>
    <g id="text_9">
     <!-- Critère de proximité (en mètres) -->
     <g transform="translate(361.857813 413.156563) scale(0.1 -0.1)">
      <defs>
       <path id="DejaVuSans-43" d="M 4122 4306 
L 4122 3641 
Q 3803 3938 3442 4084 
Q 3081 4231 2675 4231 
Q 1875 4231 1450 3742 
Q 1025 3253 1025 2328 
Q 1025 1406 1450 917 
Q 1875 428 2675 428 
Q 3081 428 3442 575 
Q 3803 722 4122 1019 
L 4122 359 
Q 3791 134 3420 21 
Q 3050 -91 2638 -91 
Q 1578 -91 968 557 
Q 359 1206 359 2328 
Q 359 3453 968 4101 
Q 1578 4750 2638 4750 
Q 3056 4750 3426 4639 
Q 3797 4528 4122 4306 
z
" transform="scale(0.015625)"/>
       <path id="DejaVuSans-72" d="M 2631 2963 
Q 2534 3019 2420 3045 
Q 2306 3072 2169 3072 
Q 1681 3072 1420 2755 
Q 1159 2438 1159 1844 
L 1159 0 
L 581 0 
L 581 3500 
L 1159 3500 
L 1159 2956 
Q 1341 3275 1631 3429 
Q 1922 3584 2338 3584 
Q 2397 3584 2469 3576 
Q 2541 3569 2628 3553 
L 2631 2963 
z
" transform="scale(0.015625)"/>
       <path id="DejaVuSans-69" d="M 603 3500 
L 1178 3500 
L 1178 0 
L 603 0 
L 603 3500 
z
M 603 4863 
L 1178 4863 
L 1178 4134 
L 603 4134 
L 603 4863 
z
" transform="scale(0.015625)"/>
       <path id="DejaVuSans-74" d="M 1172 4494 
L 1172 3500 
L 2356 3500 
L 2356 3053 
L 1172 3053 
L 1172 1153 
Q 1172 725 1289 603 
Q 1406 481 1766 481 
L 2356 481 
L 2356 0 
L 1766 0 
Q 1100 0 847 248 
Q 594 497 594 1153 
L 594 3053 
L 172 3053 
L 172 3500 
L 594 3500 
L 594 4494 
L 1172 4494 
z
" transform="scale(0.015625)"/>
       <path id="DejaVuSans-e8" d="M 3597 1894 
L 3597 1613 
L 953 1613 
Q 991 1019 1311 708 
Q 1631 397 2203 397 
Q 2534 397 2845 478 
Q 3156 559 3463 722 
L 3463 178 
Q 3153 47 2828 -22 
Q 2503 -91 2169 -91 
Q 1331 -91 842 396 
Q 353 884 353 1716 
Q 353 2575 817 3079 
Q 1281 3584 2069 3584 
Q 2775 3584 3186 3129 
Q 3597 2675 3597 1894 
z
M 3022 2063 
Q 3016 2534 2758 2815 
Q 2500 3097 2075 3097 
Q 1594 3097 1305 2825 
Q 1016 2553 972 2059 
L 3022 2063 
z
M 1581 5119 
L 2463 3950 
L 1984 3950 
L 966 5119 
L 1581 5119 
z
" transform="scale(0.015625)"/>
       <path id="DejaVuSans-65" d="M 3597 1894 
L 3597 1613 
L 953 1613 
Q 991 1019 1311 708 
Q 1631 397 2203 397 
Q 2534 397 2845 478 
Q 3156 559 3463 722 
L 3463 178 
Q 3153 47 2828 -22 
Q 2503 -91 2169 -91 
Q 1331 -91 842 396 
Q 353 884 353 1716 
Q 353 2575 817 3079 
Q 1281 3584 2069 3584 
Q 2775 3584 3186 3129 
Q 3597 2675 3597 1894 
z
M 3022 2063 
Q 3016 2534 2758 2815 
Q 2500 3097 2075 3097 
Q 1594 3097 1305 2825 
Q 1016 2553 972 2059 
L 3022 2063 
z
" transform="scale(0.015625)"/>
       <path id="DejaVuSans-20" transform="scale(0.015625)"/>
       <path id="DejaVuSans-64" d="M 2906 2969 
L 2906 4863 
L 3481 4863 
L 3481 0 
L 2906 0 
L 2906 525 
Q 2725 213 2448 61 
Q 2172 -91 1784 -91 
Q 1150 -91 751 415 
Q 353 922 353 1747 
Q 353 2572 751 3078 
Q 1150 3584 1784 3584 
Q 2172 3584 2448 3432 
Q 2725 3281 2906 2969 
z
M 947 1747 
Q 947 1113 1208 752 
Q 1469 391 1925 391 
Q 2381 391 2643 752 
Q 2906 1113 2906 1747 
Q 2906 2381 2643 2742 
Q 2381 3103 1925 3103 
Q 1469 3103 1208 2742 
Q 947 2381 947 1747 
z
" transform="scale(0.015625)"/>
       <path id="DejaVuSans-70" d="M 1159 525 
L 1159 -1331 
L 581 -1331 
L 581 3500 
L 1159 3500 
L 1159 2969 
Q 1341 3281 1617 3432 
Q 1894 3584 2278 3584 
Q 2916 3584 3314 3078 
Q 3713 2572 3713 1747 
Q 3713 922 3314 415 
Q 2916 -91 2278 -91 
Q 1894 -91 1617 61 
Q 1341 213 1159 525 
z
M 3116 1747 
Q 3116 2381 2855 2742 
Q 2594 3103 2138 3103 
Q 1681 3103 1420 2742 
Q 1159 2381 1159 1747 
Q 1159 1113 1420 752 
Q 1681 391 2138 391 
Q 2594 391 2855 752 
Q 3116 1113 3116 1747 
z
" transform="scale(0.015625)"/>
       <path id="DejaVuSans-6f" d="M 1959 3097 
Q 1497 3097 1228 2736 
Q 959 2375 959 1747 
Q 959 1119 1226 758 
Q 1494 397 1959 397 
Q 2419 397 2687 759 
Q 2956 1122 2956 1747 
Q 2956 2369 2687 2733 
Q 2419 3097 1959 3097 
z
M 1959 3584 
Q 2709 3584 3137 3096 
Q 3566 2609 3566 1747 
Q 3566 888 3137 398 
Q 2709 -91 1959 -91 
Q 1206 -91 779 398 
Q 353 888 353 1747 
Q 353 2609 779 3096 
Q 1206 3584 1959 3584 
z
" transform="scale(0.015625)"/>
       <path id="DejaVuSans-78" d="M 3513 3500 
L 2247 1797 
L 3578 0 
L 2900 0 
L 1881 1375 
L 863 0 
L 184 0 
L 1544 1831 
L 300 3500 
L 978 3500 
L 1906 2253 
L 2834 3500 
L 3513 3500 
z
" transform="scale(0.015625)"/>
       <path id="DejaVuSans-6d" d="M 3328 2828 
Q 3544 3216 3844 3400 
Q 4144 3584 4550 3584 
Q 5097 3584 5394 3201 
Q 5691 2819 5691 2113 
L 5691 0 
L 5113 0 
L 5113 2094 
Q 5113 2597 4934 2840 
Q 4756 3084 4391 3084 
Q 3944 3084 3684 2787 
Q 3425 2491 3425 1978 
L 3425 0 
L 2847 0 
L 2847 2094 
Q 2847 2600 2669 2842 
Q 2491 3084 2119 3084 
Q 1678 3084 1418 2786 
Q 1159 2488 1159 1978 
L 1159 0 
L 581 0 
L 581 3500 
L 1159 3500 
L 1159 2956 
Q 1356 3278 1631 3431 
Q 1906 3584 2284 3584 
Q 2666 3584 2933 3390 
Q 3200 3197 3328 2828 
z
" transform="scale(0.015625)"/>
       <path id="DejaVuSans-e9" d="M 3597 1894 
L 3597 1613 
L 953 1613 
Q 991 1019 1311 708 
Q 1631 397 2203 397 
Q 2534 397 2845 478 
Q 3156 559 3463 722 
L 3463 178 
Q 3153 47 2828 -22 
Q 2503 -91 2169 -91 
Q 1331 -91 842 396 
Q 353 884 353 1716 
Q 353 2575 817 3079 
Q 1281 3584 2069 3584 
Q 2775 3584 3186 3129 
Q 3597 2675 3597 1894 
z
M 3022 2063 
Q 3016 2534 2758 2815 
Q 2500 3097 2075 3097 
Q 1594 3097 1305 2825 
Q 1016 2553 972 2059 
L 3022 2063 
z
M 2469 5119 
L 3091 5119 
L 2072 3944 
L 1594 3944 
L 2469 5119 
z
" transform="scale(0.015625)"/>
       <path id="DejaVuSans-28" d="M 1984 4856 
Q 1566 4138 1362 3434 
Q 1159 2731 1159 2009 
Q 1159 1288 1364 580 
Q 1569 -128 1984 -844 
L 1484 -844 
Q 1016 -109 783 600 
Q 550 1309 550 2009 
Q 550 2706 781 3412 
Q 1013 4119 1484 4856 
L 1984 4856 
z
" transform="scale(0.015625)"/>
       <path id="DejaVuSans-6e" d="M 3513 2113 
L 3513 0 
L 2938 0 
L 2938 2094 
Q 2938 2591 2744 2837 
Q 2550 3084 2163 3084 
Q 1697 3084 1428 2787 
Q 1159 2491 1159 1978 
L 1159 0 
L 581 0 
L 581 3500 
L 1159 3500 
L 1159 2956 
Q 1366 3272 1645 3428 
Q 1925 3584 2291 3584 
Q 2894 3584 3203 3211 
Q 3513 2838 3513 2113 
z
" transform="scale(0.015625)"/>
       <path id="DejaVuSans-73" d="M 2834 3397 
L 2834 2853 
Q 2591 2978 2328 3040 
Q 2066 3103 1784 3103 
Q 1356 3103 1142 2972 
Q 928 2841 928 2578 
Q 928 2378 1081 2264 
Q 1234 2150 1697 2047 
L 1894 2003 
Q 2506 1872 2764 1633 
Q 3022 1394 3022 966 
Q 3022 478 2636 193 
Q 2250 -91 1575 -91 
Q 1294 -91 989 -36 
Q 684 19 347 128 
L 347 722 
Q 666 556 975 473 
Q 1284 391 1588 391 
Q 1994 391 2212 530 
Q 2431 669 2431 922 
Q 2431 1156 2273 1281 
Q 2116 1406 1581 1522 
L 1381 1569 
Q 847 1681 609 1914 
Q 372 2147 372 2553 
Q 372 3047 722 3315 
Q 1072 3584 1716 3584 
Q 2034 3584 2315 3537 
Q 2597 3491 2834 3397 
z
" transform="scale(0.015625)"/>
       <path id="DejaVuSans-29" d="M 513 4856 
L 1013 4856 
Q 1481 4119 1714 3412 
Q 1947 2706 1947 2009 
Q 1947 1309 1714 600 
Q 1481 -109 1013 -844 
L 513 -844 
Q 928 -128 1133 580 
Q 1338 1288 1338 2009 
Q 1338 2731 1133 3434 
Q 928 4138 513 4856 
z
" transform="scale(0.015625)"/>
      </defs>
      <use xlink:href="#DejaVuSans-43"/>
      <use xlink:href="#DejaVuSans-72" transform="translate(69.824219 0)"/>
      <use xlink:href="#DejaVuSans-69" transform="translate(110.9375 0)"/>
      <use xlink:href="#DejaVuSans-74" transform="translate(138.720703 0)"/>
      <use xlink:href="#DejaVuSans-e8" transform="translate(177.929688 0)"/>
      <use xlink:href="#DejaVuSans-72" transform="translate(239.453125 0)"/>
      <use xlink:href="#DejaVuSans-65" transform="translate(278.316406 0)"/>
      <use xlink:href="#DejaVuSans-20" transform="translate(339.839844 0)"/>
      <use xlink:href="#DejaVuSans-64" transform="translate(371.626953 0)"/>
      <use xlink:href="#DejaVuSans-65" transform="translate(435.103516 0)"/>
      <use xlink:href="#DejaVuSans-20" transform="translate(496.626953 0)"/>
      <use xlink:href="#DejaVuSans-70" transform="translate(528.414062 0)"/>
      <use xlink:href="#DejaVuSans-72" transform="translate(591.890625 0)"/>
      <use xlink:href="#DejaVuSans-6f" transform="translate(630.753906 0)"/>
      <use xlink:href="#DejaVuSans-78" transform="translate(688.810547 0)"/>
      <use xlink:href="#DejaVuSans-69" transform="translate(747.990234 0)"/>
      <use xlink:href="#DejaVuSans-6d" transform="translate(775.773438 0)"/>
      <use xlink:href="#DejaVuSans-69" transform="translate(873.185547 0)"/>
      <use xlink:href="#DejaVuSans-74" transform="translate(900.96875 0)"/>
      <use xlink:href="#DejaVuSans-e9" transform="translate(940.177734 0)"/>
      <use xlink:href="#DejaVuSans-20" transform="translate(1001.701172 0)"/>
      <use xlink:href="#DejaVuSans-28" transform="translate(1033.488281 0)"/>
      <use xlink:href="#DejaVuSans-65" transform="translate(1072.501953 0)"/>
      <use xlink:href="#DejaVuSans-6e" transform="translate(1134.025391 0)"/>
      <use xlink:href="#DejaVuSans-20" transform="translate(1197.404297 0)"/>
      <use xlink:href="#DejaVuSans-6d" transform="translate(1229.191406 0)"/>
      <use xlink:href="#DejaVuSans-e8" transform="translate(1326.603516 0)"/>
      <use xlink:href="#DejaVuSans-74" transform="translate(1388.126953 0)"/>
      <use xlink:href="#DejaVuSans-72" transform="translate(1427.335938 0)"/>
      <use xlink:href="#DejaVuSans-65" transform="translate(1466.199219 0)"/>
      <use xlink:href="#DejaVuSans-73" transform="translate(1527.722656 0)"/>
      <use xlink:href="#DejaVuSans-29" transform="translate(1579.822266 0)"/>
     </g>
    </g>
   </g>
   <g id="matplotlib.axis_2">
    <g id="ytick_1">
     <g id="line2d_9">
      <path d="M 108 384.48 
L 777.6 384.48 
" clip-path="url(#p299e979c24)" style="fill: none; stroke-dasharray: 2.96,1.28; stroke-dashoffset: 0; stroke: #b0b0b0; stroke-opacity: 0.7; stroke-width: 0.8"/>
     </g>
     <g id="line2d_10">
      <defs>
       <path id="mf39720e22f" d="M 0 0 
L -3.5 0 
" style="stroke: #000000; stroke-width: 0.8"/>
      </defs>
      <g>
       <use xlink:href="#mf39720e22f" x="108" y="384.48" style="stroke: #000000; stroke-width: 0.8"/>
      </g>
     </g>
     <g id="text_10">
      <!-- 0 -->
      <g transform="translate(94.6375 388.279219) scale(0.1 -0.1)">
       <use xlink:href="#DejaVuSans-30"/>
      </g>
     </g>
    </g>
    <g id="ytick_2">
     <g id="line2d_11">
      <path d="M 108 319.653203 
L 777.6 319.653203 
" clip-path="url(#p299e979c24)" style="fill: none; stroke-dasharray: 2.96,1.28; stroke-dashoffset: 0; stroke: #b0b0b0; stroke-opacity: 0.7; stroke-width: 0.8"/>
     </g>
     <g id="line2d_12">
      <g>
       <use xlink:href="#mf39720e22f" x="108" y="319.653203" style="stroke: #000000; stroke-width: 0.8"/>
      </g>
     </g>
     <g id="text_11">
      <!-- 1 -->
      <g transform="translate(94.6375 323.452422) scale(0.1 -0.1)">
       <use xlink:href="#DejaVuSans-31"/>
      </g>
     </g>
    </g>
    <g id="ytick_3">
     <g id="line2d_13">
      <path d="M 108 254.826406 
L 777.6 254.826406 
" clip-path="url(#p299e979c24)" style="fill: none; stroke-dasharray: 2.96,1.28; stroke-dashoffset: 0; stroke: #b0b0b0; stroke-opacity: 0.7; stroke-width: 0.8"/>
     </g>
     <g id="line2d_14">
      <g>
       <use xlink:href="#mf39720e22f" x="108" y="254.826406" style="stroke: #000000; stroke-width: 0.8"/>
      </g>
     </g>
     <g id="text_12">
      <!-- 2 -->
      <g transform="translate(94.6375 258.625625) scale(0.1 -0.1)">
       <use xlink:href="#DejaVuSans-32"/>
      </g>
     </g>
    </g>
    <g id="ytick_4">
     <g id="line2d_15">
      <path d="M 108 189.999609 
L 777.6 189.999609 
" clip-path="url(#p299e979c24)" style="fill: none; stroke-dasharray: 2.96,1.28; stroke-dashoffset: 0; stroke: #b0b0b0; stroke-opacity: 0.7; stroke-width: 0.8"/>
     </g>
     <g id="line2d_16">
      <g>
       <use xlink:href="#mf39720e22f" x="108" y="189.999609" style="stroke: #000000; stroke-width: 0.8"/>
      </g>
     </g>
     <g id="text_13">
      <!-- 3 -->
      <g transform="translate(94.6375 193.798828) scale(0.1 -0.1)">
       <defs>
        <path id="DejaVuSans-33" d="M 2597 2516 
Q 3050 2419 3304 2112 
Q 3559 1806 3559 1356 
Q 3559 666 3084 287 
Q 2609 -91 1734 -91 
Q 1441 -91 1130 -33 
Q 819 25 488 141 
L 488 750 
Q 750 597 1062 519 
Q 1375 441 1716 441 
Q 2309 441 2620 675 
Q 2931 909 2931 1356 
Q 2931 1769 2642 2001 
Q 2353 2234 1838 2234 
L 1294 2234 
L 1294 2753 
L 1863 2753 
Q 2328 2753 2575 2939 
Q 2822 3125 2822 3475 
Q 2822 3834 2567 4026 
Q 2313 4219 1838 4219 
Q 1578 4219 1281 4162 
Q 984 4106 628 3988 
L 628 4550 
Q 988 4650 1302 4700 
Q 1616 4750 1894 4750 
Q 2613 4750 3031 4423 
Q 3450 4097 3450 3541 
Q 3450 3153 3228 2886 
Q 3006 2619 2597 2516 
z
" transform="scale(0.015625)"/>
       </defs>
       <use xlink:href="#DejaVuSans-33"/>
      </g>
     </g>
    </g>
    <g id="ytick_5">
     <g id="line2d_17">
      <path d="M 108 125.172812 
L 777.6 125.172812 
" clip-path="url(#p299e979c24)" style="fill: none; stroke-dasharray: 2.96,1.28; stroke-dashoffset: 0; stroke: #b0b0b0; stroke-opacity: 0.7; stroke-width: 0.8"/>
     </g>
     <g id="line2d_18">
      <g>
       <use xlink:href="#mf39720e22f" x="108" y="125.172812" style="stroke: #000000; stroke-width: 0.8"/>
      </g>
     </g>
     <g id="text_14">
      <!-- 4 -->
      <g transform="translate(94.6375 128.972031) scale(0.1 -0.1)">
       <defs>
        <path id="DejaVuSans-34" d="M 2419 4116 
L 825 1625 
L 2419 1625 
L 2419 4116 
z
M 2253 4666 
L 3047 4666 
L 3047 1625 
L 3713 1625 
L 3713 1100 
L 3047 1100 
L 3047 0 
L 2419 0 
L 2419 1100 
L 313 1100 
L 313 1709 
L 2253 4666 
z
" transform="scale(0.015625)"/>
       </defs>
       <use xlink:href="#DejaVuSans-34"/>
      </g>
     </g>
    </g>
    <g id="ytick_6">
     <g id="line2d_19">
      <path d="M 108 60.346015 
L 777.6 60.346015 
" clip-path="url(#p299e979c24)" style="fill: none; stroke-dasharray: 2.96,1.28; stroke-dashoffset: 0; stroke: #b0b0b0; stroke-opacity: 0.7; stroke-width: 0.8"/>
     </g>
     <g id="line2d_20">
      <g>
       <use xlink:href="#mf39720e22f" x="108" y="60.346015" style="stroke: #000000; stroke-width: 0.8"/>
      </g>
     </g>
     <g id="text_15">
      <!-- 5 -->
      <g transform="translate(94.6375 64.145234) scale(0.1 -0.1)">
       <use xlink:href="#DejaVuSans-35"/>
      </g>
     </g>
    </g>
    <g id="text_16">
     <!-- Nombre de transferts -->
     <g transform="translate(88.557812 271.763125) rotate(-90) scale(0.1 -0.1)">
      <defs>
       <path id="DejaVuSans-4e" d="M 628 4666 
L 1478 4666 
L 3547 763 
L 3547 4666 
L 4159 4666 
L 4159 0 
L 3309 0 
L 1241 3903 
L 1241 0 
L 628 0 
L 628 4666 
z
" transform="scale(0.015625)"/>
       <path id="DejaVuSans-62" d="M 3116 1747 
Q 3116 2381 2855 2742 
Q 2594 3103 2138 3103 
Q 1681 3103 1420 2742 
Q 1159 2381 1159 1747 
Q 1159 1113 1420 752 
Q 1681 391 2138 391 
Q 2594 391 2855 752 
Q 3116 1113 3116 1747 
z
M 1159 2969 
Q 1341 3281 1617 3432 
Q 1894 3584 2278 3584 
Q 2916 3584 3314 3078 
Q 3713 2572 3713 1747 
Q 3713 922 3314 415 
Q 2916 -91 2278 -91 
Q 1894 -91 1617 61 
Q 1341 213 1159 525 
L 1159 0 
L 581 0 
L 581 4863 
L 1159 4863 
L 1159 2969 
z
" transform="scale(0.015625)"/>
       <path id="DejaVuSans-61" d="M 2194 1759 
Q 1497 1759 1228 1600 
Q 959 1441 959 1056 
Q 959 750 1161 570 
Q 1363 391 1709 391 
Q 2188 391 2477 730 
Q 2766 1069 2766 1631 
L 2766 1759 
L 2194 1759 
z
M 3341 1997 
L 3341 0 
L 2766 0 
L 2766 531 
Q 2569 213 2275 61 
Q 1981 -91 1556 -91 
Q 1019 -91 701 211 
Q 384 513 384 1019 
Q 384 1609 779 1909 
Q 1175 2209 1959 2209 
L 2766 2209 
L 2766 2266 
Q 2766 2663 2505 2880 
Q 2244 3097 1772 3097 
Q 1472 3097 1187 3025 
Q 903 2953 641 2809 
L 641 3341 
Q 956 3463 1253 3523 
Q 1550 3584 1831 3584 
Q 2591 3584 2966 3190 
Q 3341 2797 3341 1997 
z
" transform="scale(0.015625)"/>
       <path id="DejaVuSans-66" d="M 2375 4863 
L 2375 4384 
L 1825 4384 
Q 1516 4384 1395 4259 
Q 1275 4134 1275 3809 
L 1275 3500 
L 2222 3500 
L 2222 3053 
L 1275 3053 
L 1275 0 
L 697 0 
L 697 3053 
L 147 3053 
L 147 3500 
L 697 3500 
L 697 3744 
Q 697 4328 969 4595 
Q 1241 4863 1831 4863 
L 2375 4863 
z
" transform="scale(0.015625)"/>
      </defs>
      <use xlink:href="#DejaVuSans-4e"/>
      <use xlink:href="#DejaVuSans-6f" transform="translate(74.804688 0)"/>
      <use xlink:href="#DejaVuSans-6d" transform="translate(135.986328 0)"/>
      <use xlink:href="#DejaVuSans-62" transform="translate(233.398438 0)"/>
      <use xlink:href="#DejaVuSans-72" transform="translate(296.875 0)"/>
      <use xlink:href="#DejaVuSans-65" transform="translate(335.738281 0)"/>
      <use xlink:href="#DejaVuSans-20" transform="translate(397.261719 0)"/>
      <use xlink:href="#DejaVuSans-64" transform="translate(429.048828 0)"/>
      <use xlink:href="#DejaVuSans-65" transform="translate(492.525391 0)"/>
      <use xlink:href="#DejaVuSans-20" transform="translate(554.048828 0)"/>
      <use xlink:href="#DejaVuSans-74" transform="translate(585.835938 0)"/>
      <use xlink:href="#DejaVuSans-72" transform="translate(625.044922 0)"/>
      <use xlink:href="#DejaVuSans-61" transform="translate(666.158203 0)"/>
      <use xlink:href="#DejaVuSans-6e" transform="translate(727.4375 0)"/>
      <use xlink:href="#DejaVuSans-73" transform="translate(790.816406 0)"/>
      <use xlink:href="#DejaVuSans-66" transform="translate(842.916016 0)"/>
      <use xlink:href="#DejaVuSans-65" transform="translate(878.121094 0)"/>
      <use xlink:href="#DejaVuSans-72" transform="translate(939.644531 0)"/>
      <use xlink:href="#DejaVuSans-74" transform="translate(980.757812 0)"/>
      <use xlink:href="#DejaVuSans-73" transform="translate(1019.966797 0)"/>
     </g>
    </g>
    <g id="text_17">
     <!-- 1e6 -->
     <g transform="translate(108 48.84) scale(0.1 -0.1)">
      <defs>
       <path id="DejaVuSans-36" d="M 2113 2584 
Q 1688 2584 1439 2293 
Q 1191 2003 1191 1497 
Q 1191 994 1439 701 
Q 1688 409 2113 409 
Q 2538 409 2786 701 
Q 3034 994 3034 1497 
Q 3034 2003 2786 2293 
Q 2538 2584 2113 2584 
z
M 3366 4563 
L 3366 3988 
Q 3128 4100 2886 4159 
Q 2644 4219 2406 4219 
Q 1781 4219 1451 3797 
Q 1122 3375 1075 2522 
Q 1259 2794 1537 2939 
Q 1816 3084 2150 3084 
Q 2853 3084 3261 2657 
Q 3669 2231 3669 1497 
Q 3669 778 3244 343 
Q 2819 -91 2113 -91 
Q 1303 -91 875 529 
Q 447 1150 447 2328 
Q 447 3434 972 4092 
Q 1497 4750 2381 4750 
Q 2619 4750 2861 4703 
Q 3103 4656 3366 4563 
z
" transform="scale(0.015625)"/>
      </defs>
      <use xlink:href="#DejaVuSans-31"/>
      <use xlink:href="#DejaVuSans-65" transform="translate(63.623047 0)"/>
      <use xlink:href="#DejaVuSans-36" transform="translate(125.146484 0)"/>
     </g>
    </g>
   </g>
   <g id="patch_203">
    <path d="M 108 384.48 
L 108 51.84 
" style="fill: none; stroke: #000000; stroke-width: 0.8; stroke-linejoin: miter; stroke-linecap: square"/>
   </g>
   <g id="patch_204">
    <path d="M 777.6 384.48 
L 777.6 51.84 
" style="fill: none; stroke: #000000; stroke-width: 0.8; stroke-linejoin: miter; stroke-linecap: square"/>
   </g>
   <g id="patch_205">
    <path d="M 108 384.48 
L 777.6 384.48 
" style="fill: none; stroke: #000000; stroke-width: 0.8; stroke-linejoin: miter; stroke-linecap: square"/>
   </g>
   <g id="patch_206">
    <path d="M 108 51.84 
L 777.6 51.84 
" style="fill: none; stroke: #000000; stroke-width: 0.8; stroke-linejoin: miter; stroke-linecap: square"/>
   </g>
   <g id="text_18">
    <!-- Taille de $T$ en fonction du critère de proximité sur les gares belges -->
    <g transform="translate(242.88 45.84) scale(0.12 -0.12)">
     <defs>
      <path id="DejaVuSans-54" d="M -19 4666 
L 3928 4666 
L 3928 4134 
L 2272 4134 
L 2272 0 
L 1638 0 
L 1638 4134 
L -19 4134 
L -19 4666 
z
" transform="scale(0.015625)"/>
      <path id="DejaVuSans-6c" d="M 603 4863 
L 1178 4863 
L 1178 0 
L 603 0 
L 603 4863 
z
" transform="scale(0.015625)"/>
      <path id="DejaVuSans-Oblique-54" d="M 378 4666 
L 4325 4666 
L 4225 4134 
L 2559 4134 
L 1759 0 
L 1125 0 
L 1925 4134 
L 275 4134 
L 378 4666 
z
" transform="scale(0.015625)"/>
      <path id="DejaVuSans-63" d="M 3122 3366 
L 3122 2828 
Q 2878 2963 2633 3030 
Q 2388 3097 2138 3097 
Q 1578 3097 1268 2742 
Q 959 2388 959 1747 
Q 959 1106 1268 751 
Q 1578 397 2138 397 
Q 2388 397 2633 464 
Q 2878 531 3122 666 
L 3122 134 
Q 2881 22 2623 -34 
Q 2366 -91 2075 -91 
Q 1284 -91 818 406 
Q 353 903 353 1747 
Q 353 2603 823 3093 
Q 1294 3584 2113 3584 
Q 2378 3584 2631 3529 
Q 2884 3475 3122 3366 
z
" transform="scale(0.015625)"/>
      <path id="DejaVuSans-75" d="M 544 1381 
L 544 3500 
L 1119 3500 
L 1119 1403 
Q 1119 906 1312 657 
Q 1506 409 1894 409 
Q 2359 409 2629 706 
Q 2900 1003 2900 1516 
L 2900 3500 
L 3475 3500 
L 3475 0 
L 2900 0 
L 2900 538 
Q 2691 219 2414 64 
Q 2138 -91 1772 -91 
Q 1169 -91 856 284 
Q 544 659 544 1381 
z
M 1991 3584 
L 1991 3584 
z
" transform="scale(0.015625)"/>
      <path id="DejaVuSans-67" d="M 2906 1791 
Q 2906 2416 2648 2759 
Q 2391 3103 1925 3103 
Q 1463 3103 1205 2759 
Q 947 2416 947 1791 
Q 947 1169 1205 825 
Q 1463 481 1925 481 
Q 2391 481 2648 825 
Q 2906 1169 2906 1791 
z
M 3481 434 
Q 3481 -459 3084 -895 
Q 2688 -1331 1869 -1331 
Q 1566 -1331 1297 -1286 
Q 1028 -1241 775 -1147 
L 775 -588 
Q 1028 -725 1275 -790 
Q 1522 -856 1778 -856 
Q 2344 -856 2625 -561 
Q 2906 -266 2906 331 
L 2906 616 
Q 2728 306 2450 153 
Q 2172 0 1784 0 
Q 1141 0 747 490 
Q 353 981 353 1791 
Q 353 2603 747 3093 
Q 1141 3584 1784 3584 
Q 2172 3584 2450 3431 
Q 2728 3278 2906 2969 
L 2906 3500 
L 3481 3500 
L 3481 434 
z
" transform="scale(0.015625)"/>
     </defs>
     <use xlink:href="#DejaVuSans-54" transform="translate(0 0.015625)"/>
     <use xlink:href="#DejaVuSans-61" transform="translate(61.083984 0.015625)"/>
     <use xlink:href="#DejaVuSans-69" transform="translate(122.363281 0.015625)"/>
     <use xlink:href="#DejaVuSans-6c" transform="translate(150.146484 0.015625)"/>
     <use xlink:href="#DejaVuSans-6c" transform="translate(177.929688 0.015625)"/>
     <use xlink:href="#DejaVuSans-65" transform="translate(205.712891 0.015625)"/>
     <use xlink:href="#DejaVuSans-20" transform="translate(267.236328 0.015625)"/>
     <use xlink:href="#DejaVuSans-64" transform="translate(299.023438 0.015625)"/>
     <use xlink:href="#DejaVuSans-65" transform="translate(362.5 0.015625)"/>
     <use xlink:href="#DejaVuSans-20" transform="translate(424.023438 0.015625)"/>
     <use xlink:href="#DejaVuSans-Oblique-54" transform="translate(455.810547 0.015625)"/>
     <use xlink:href="#DejaVuSans-20" transform="translate(516.894531 0.015625)"/>
     <use xlink:href="#DejaVuSans-65" transform="translate(548.681641 0.015625)"/>
     <use xlink:href="#DejaVuSans-6e" transform="translate(610.205078 0.015625)"/>
     <use xlink:href="#DejaVuSans-20" transform="translate(673.583984 0.015625)"/>
     <use xlink:href="#DejaVuSans-66" transform="translate(705.371094 0.015625)"/>
     <use xlink:href="#DejaVuSans-6f" transform="translate(740.576172 0.015625)"/>
     <use xlink:href="#DejaVuSans-6e" transform="translate(801.757812 0.015625)"/>
     <use xlink:href="#DejaVuSans-63" transform="translate(865.136719 0.015625)"/>
     <use xlink:href="#DejaVuSans-74" transform="translate(920.117188 0.015625)"/>
     <use xlink:href="#DejaVuSans-69" transform="translate(959.326172 0.015625)"/>
     <use xlink:href="#DejaVuSans-6f" transform="translate(987.109375 0.015625)"/>
     <use xlink:href="#DejaVuSans-6e" transform="translate(1048.291016 0.015625)"/>
     <use xlink:href="#DejaVuSans-20" transform="translate(1111.669922 0.015625)"/>
     <use xlink:href="#DejaVuSans-64" transform="translate(1143.457031 0.015625)"/>
     <use xlink:href="#DejaVuSans-75" transform="translate(1206.933594 0.015625)"/>
     <use xlink:href="#DejaVuSans-20" transform="translate(1270.3125 0.015625)"/>
     <use xlink:href="#DejaVuSans-63" transform="translate(1302.099609 0.015625)"/>
     <use xlink:href="#DejaVuSans-72" transform="translate(1357.080078 0.015625)"/>
     <use xlink:href="#DejaVuSans-69" transform="translate(1398.193359 0.015625)"/>
     <use xlink:href="#DejaVuSans-74" transform="translate(1425.976562 0.015625)"/>
     <use xlink:href="#DejaVuSans-e8" transform="translate(1465.185547 0.015625)"/>
     <use xlink:href="#DejaVuSans-72" transform="translate(1526.708984 0.015625)"/>
     <use xlink:href="#DejaVuSans-65" transform="translate(1567.822266 0.015625)"/>
     <use xlink:href="#DejaVuSans-20" transform="translate(1629.345703 0.015625)"/>
     <use xlink:href="#DejaVuSans-64" transform="translate(1661.132812 0.015625)"/>
     <use xlink:href="#DejaVuSans-65" transform="translate(1724.609375 0.015625)"/>
     <use xlink:href="#DejaVuSans-20" transform="translate(1786.132812 0.015625)"/>
     <use xlink:href="#DejaVuSans-70" transform="translate(1817.919922 0.015625)"/>
     <use xlink:href="#DejaVuSans-72" transform="translate(1881.396484 0.015625)"/>
     <use xlink:href="#DejaVuSans-6f" transform="translate(1922.509766 0.015625)"/>
     <use xlink:href="#DejaVuSans-78" transform="translate(1983.691406 0.015625)"/>
     <use xlink:href="#DejaVuSans-69" transform="translate(2042.871094 0.015625)"/>
     <use xlink:href="#DejaVuSans-6d" transform="translate(2070.654297 0.015625)"/>
     <use xlink:href="#DejaVuSans-69" transform="translate(2168.066406 0.015625)"/>
     <use xlink:href="#DejaVuSans-74" transform="translate(2195.849609 0.015625)"/>
     <use xlink:href="#DejaVuSans-e9" transform="translate(2235.058594 0.015625)"/>
     <use xlink:href="#DejaVuSans-20" transform="translate(2296.582031 0.015625)"/>
     <use xlink:href="#DejaVuSans-73" transform="translate(2328.369141 0.015625)"/>
     <use xlink:href="#DejaVuSans-75" transform="translate(2380.46875 0.015625)"/>
     <use xlink:href="#DejaVuSans-72" transform="translate(2443.847656 0.015625)"/>
     <use xlink:href="#DejaVuSans-20" transform="translate(2484.960938 0.015625)"/>
     <use xlink:href="#DejaVuSans-6c" transform="translate(2516.748047 0.015625)"/>
     <use xlink:href="#DejaVuSans-65" transform="translate(2544.53125 0.015625)"/>
     <use xlink:href="#DejaVuSans-73" transform="translate(2606.054688 0.015625)"/>
     <use xlink:href="#DejaVuSans-20" transform="translate(2658.154297 0.015625)"/>
     <use xlink:href="#DejaVuSans-67" transform="translate(2689.941406 0.015625)"/>
     <use xlink:href="#DejaVuSans-61" transform="translate(2753.417969 0.015625)"/>
     <use xlink:href="#DejaVuSans-72" transform="translate(2814.697266 0.015625)"/>
     <use xlink:href="#DejaVuSans-65" transform="translate(2855.810547 0.015625)"/>
     <use xlink:href="#DejaVuSans-73" transform="translate(2917.333984 0.015625)"/>
     <use xlink:href="#DejaVuSans-20" transform="translate(2969.433594 0.015625)"/>
     <use xlink:href="#DejaVuSans-62" transform="translate(3001.220703 0.015625)"/>
     <use xlink:href="#DejaVuSans-65" transform="translate(3064.697266 0.015625)"/>
     <use xlink:href="#DejaVuSans-6c" transform="translate(3126.220703 0.015625)"/>
     <use xlink:href="#DejaVuSans-67" transform="translate(3154.003906 0.015625)"/>
     <use xlink:href="#DejaVuSans-65" transform="translate(3217.480469 0.015625)"/>
     <use xlink:href="#DejaVuSans-73" transform="translate(3279.003906 0.015625)"/>
    </g>
   </g>
  </g>
 </g>
 <defs>
  <clipPath id="p299e979c24">
   <rect x="108" y="51.84" width="669.6" height="332.64"/>
  </clipPath>
 </defs>
</svg>
